<?xml version="1.0"?><svg xmlns="http://www.w3.org/2000/svg" fill="white" viewBox="0 0 30 30" width="60px" height="60px">    <path d="M 24 4 A 2 2 0 0 0 22 6 A 2 2 0 0 0 22.115234 6.6621094 L 18.367188 11.035156 A 2 2 0 0 0 18 11 A 2 2 0 0 0 17.115234 11.207031 L 13.994141 9.1269531 A 2 2 0 0 0 14 9 A 2 2 0 0 0 12 7 A 2 2 0 0 0 10.005859 8.8789062 L 7.0996094 10.332031 A 2 2 0 0 0 6 10 A 2 2 0 0 0 4 12 A 2 2 0 0 0 6 14 A 2 2 0 0 0 7.9941406 12.121094 L 10.900391 10.667969 A 2 2 0 0 0 12 11 A 2 2 0 0 0 12.884766 10.792969 L 16.005859 12.873047 A 2 2 0 0 0 16 13 A 2 2 0 0 0 18 15 A 2 2 0 0 0 20 13 A 2 2 0 0 0 19.884766 12.337891 L 23.632812 7.9648438 A 2 2 0 0 0 24 8 A 2 2 0 0 0 26 6 A 2 2 0 0 0 24 4 z M 12 16 A 2 2 0 0 0 10 18 A 2 2 0 0 0 10.115234 18.662109 L 6.3671875 23.035156 A 2 2 0 0 0 6 23 A 2 2 0 0 0 4 25 A 2 2 0 0 0 6 27 A 2 2 0 0 0 8 25 A 2 2 0 0 0 7.8847656 24.337891 L 11.632812 19.964844 A 2 2 0 0 0 12 20 A 2 2 0 0 0 12.515625 19.929688 L 16.068359 23.482422 A 2 2 0 0 0 16 24 A 2 2 0 0 0 18 26 A 2 2 0 0 0 20 24 A 2 2 0 0 0 19.994141 23.873047 L 23.115234 21.792969 A 2 2 0 0 0 24 22 A 2 2 0 0 0 26 20 A 2 2 0 0 0 24 18 A 2 2 0 0 0 22 20 A 2 2 0 0 0 22.005859 20.126953 L 18.884766 22.207031 A 2 2 0 0 0 18 22 A 2 2 0 0 0 17.484375 22.070312 L 13.931641 18.517578 A 2 2 0 0 0 14 18 A 2 2 0 0 0 12 16 z"/></svg>