<svg xmlns="http://www.w3.org/2000/svg" viewBox="0 0 24 24" fill="none" x="0px" y="0px"><path d="M15.8774 2.52016C15.702 2.19945 15.3655 2 15 2C14.6345 2 14.298 2.19945 14.1226 2.52016L13.5561 3.55608L12.5202 4.12264C12.1994 4.29805 12 4.63446 12 5C12 5.36554 12.1994 5.70195 12.5202 5.87736L13.5561 6.44392L14.1226 7.47984C14.298 7.80055 14.6345 8 15 8C15.3655 8 15.702 7.80055 15.8774 7.47984L16.4439 6.44392L17.4798 5.87736C17.8006 5.70195 18 5.36554 18 5C18 4.63446 17.8006 4.29805 17.4798 4.12264L16.4439 3.55608L15.8774 2.52016Z" fill="white"/><path d="M10.8924 7.54888C10.7223 7.21224 10.3772 7 9.99997 7C9.62277 7 9.27767 7.21224 9.10751 7.54888L7.17978 11.3625L2.8595 11.9755C2.4799 12.0293 2.16451 12.2955 2.0476 12.6606C1.93068 13.0258 2.03284 13.4256 2.31057 13.6899L5.42232 16.6514L4.68881 20.827C4.62313 21.2009 4.77481 21.5797 5.08037 21.8049C5.38593 22.0302 5.79267 22.063 6.13039 21.8896L9.99997 19.9034L13.8696 21.8896C14.2073 22.063 14.614 22.0302 14.9196 21.8049C15.2251 21.5797 15.3768 21.2009 15.3111 20.827L14.5776 16.6514L17.6894 13.6899C17.9671 13.4256 18.0693 13.0258 17.9523 12.6606C17.8354 12.2955 17.52 12.0293 17.1404 11.9755L12.8202 11.3625L10.8924 7.54888Z" fill="white"/><path d="M20.8774 8.52016C20.702 8.19945 20.3655 8 20 8C19.6345 8 19.298 8.19945 19.1226 8.52016L18.9096 8.90963L18.5202 9.12264C18.1994 9.29805 18 9.63446 18 10C18 10.3655 18.1994 10.702 18.5202 10.8774L18.9096 11.0904L19.1226 11.4798C19.298 11.8006 19.6345 12 20 12C20.3655 12 20.702 11.8006 20.8774 11.4798L21.0904 11.0904L21.4798 10.8774C21.8006 10.702 22 10.3655 22 10C22 9.63446 21.8006 9.29805 21.4798 9.12264L21.0904 8.90963L20.8774 8.52016Z" fill="white"/></svg>