<svg width="48" height="48" viewBox="0 0 48 48" fill="none" xmlns="http://www.w3.org/2000/svg">
<path d="M16 16.7002C16.0001 17.4181 16.5375 18 17.2002 18H30.7998C31.4625 18 31.9999 17.4181 32 16.7002V4.5H32.3428C33.8014 4.5 35.2009 5.07991 36.2324 6.11133L41.8887 11.7676C42.9202 12.7991 43.5 14.1985 43.5 15.6572V38C43.5 41.0376 41.0376 43.5 38 43.5H10C6.96245 43.5 4.5 41.0376 4.5 38V10C4.5 6.96243 6.96243 4.5 10 4.5H16V16.7002ZM13.2002 26C12.5375 26 12 26.5374 12 27.2002V42H36V27.2002C36 26.5374 35.4626 26 34.7998 26H13.2002Z" fill="black"/>
<path d="M26 4.5H29V10.5C29 11.0523 28.5523 11.5 28 11.5H27C26.4477 11.5 26 11.0523 26 10.5V4.5Z" fill="black"/>
</svg>
