<svg width="48" height="48" viewBox="0 0 48 48" fill="none" xmlns="http://www.w3.org/2000/svg">
<path d="M20.5912 5C18.4618 5 16.6372 6.52282 16.2563 8.61783L14.5954 16.75L16.5818 19.26L18.6208 9.04769C18.794 8.0954 19.6234 7.40322 20.5913 7.40322H28.0602C29.0281 7.40322 29.8576 8.09541 30.0306 9.04767L32.84 24.4989C32.3616 24.322 31.8464 24.2261 31.312 24.2261H25.5271V20.2206V17.8174V13.8119V11.4087V9.40594C25.5271 8.7423 24.9891 8.2043 24.3255 8.2043C23.6619 8.2043 23.1239 8.7423 23.1239 9.40594V11.4087V13.8119V17.8174V20.2206V24.2261H20.52L24.19 28.9911L24.3257 29.0326C26.7591 29.0326 28.7317 31.0052 28.7317 33.4386C28.7317 35.872 26.7591 37.8446 24.3257 37.8446C21.8924 37.8446 19.9196 35.872 19.9196 33.4386C19.9196 32.7423 20 33 20.1 32.5L13.6412 24L11.0128 37.457C10.521 40.1615 12.5988 42.6511 15.3477 42.6511H33.3037C36.0527 42.6511 38.1304 40.1615 37.6387 37.457L32.3951 8.61783C32.0142 6.52282 30.1895 5 28.0602 5H20.5912Z" fill="black"/>
<path d="M5.95582 10.0662C6.47617 9.65426 7.23191 9.74214 7.64383 10.2625L25.409 32.7482C25.8209 33.2684 25.733 34.0242 25.2127 34.4361C24.6923 34.848 23.9366 34.7602 23.5247 34.2398L5.75956 11.7541C5.34762 11.2337 5.4355 10.4781 5.95582 10.0662Z" fill="black"/>
</svg>
